<?xml version="1.0" encoding="UTF-8"?>
<svg id="Layer_2" data-name="Layer 2" xmlns="http://www.w3.org/2000/svg" viewBox="0 0 275.65 115.15">
  <defs><style>.cls-1{fill:#f4c900}.cls-2{fill:#f2f2f2}</style></defs>
  <g id="Layer_1-2" data-name="Layer 1"><g><polygon class="cls-1" points="0 25.77 12.73 25.77 12.73 9.78 24.47 9.78 24.47 0 38.5 0 38.5 16.63 25.77 16.63 25.77 31.97 12.73 31.97 12.73 83.18 25.77 83.18 25.77 98.84 38.5 98.84 38.5 115.15 25.77 115.15 25.77 106.34 12.73 106.34 12.73 91.01 0 91.01 0 25.77"/><polygon class="cls-1" points="275.65 25.77 262.6 25.77 262.6 9.78 251.18 9.78 251.18 0 237.16 0 237.16 16.63 249.88 16.63 249.88 31.97 262.6 31.97 262.6 83.18 249.88 83.18 249.88 98.84 237.16 98.84 237.16 115.15 249.88 115.15 249.88 106.34 262.6 106.34 262.6 91.01 275.65 91.01 275.65 25.77"/><path class="cls-2" d="M45.02,21.53l-1.96,15.98h21.86l-6.85,56.76h19.25l6.85-56.76h9.79l.65-4.24h6.2l.98-7.5h5.55l.65-3.91h-62.31l-.65-.33h0Z"/><path class="cls-2" d="M146.8,37.19l1.96-15.98h-34.9l-.98,7.18h-5.55l-.98,7.5h-6.2l-.65,4.24h-4.57l-6.52,53.5h19.57l3.59-28.38h28.05l1.96-15.98h-28.05l1.63-12.4h31.32l.33.33h-.01Z"/><path class="cls-2" d="M232.26,37.19l.98-7.18h-6.2l.98-8.48h-13.37l-21.86,41.1h-.98l-11.74-41.1h-24.47l-8.81,72.42h19.25l5.22-42.08h.65l11.09,41.76h11.74l21.2-41.43h.65l-5.22,41.76h19.25l6.85-56.76h-5.22,0Z"/></g></g>
</svg>